<svg width="70" height="75" viewBox="0 0 70 75" fill="none" xmlns="http://www.w3.org/2000/svg">
<path d="M12.4095 63.5773C13.1217 60.8041 18.6128 53.3703 21.2693 50C23.7612 53.4477 28.9109 60.9898 29.5754 63.5773C33.5237 78.9518 8.53545 78.6627 12.4095 63.5773Z" fill="#fff"/>
<path d="M33.641 38C29.3538 38 28.094 42 28 44H31.1026C31.2906 43.2632 32.0051 41.7895 33.359 41.7895C34.7128 41.7895 35.2393 43.2632 35.3333 44H39C39 42 37.9282 38 33.641 38Z" fill="#fff"/>
<path d="M21 49V30C21 30 8.77905e-06 36.6212 0 38.0606C-8.77904e-06 39.5 21 49 21 49Z" fill="#fff"/>
<path d="M44.0756 28.8679H21V20.0943H34.9593L25.2733 10.7547L31.2558 4.24528L41.2267 13.3019V0H50.343V13.3019C50.343 13.0755 56.4205 7.16981 59.4593 4.24528L66.0116 10.7547L56.6105 20.0943H70V28.8679H56.6105L66.0116 38.7736L59.7442 45L44.0756 28.8679Z" fill="#fff"/>
</svg>
