<svg width="74" height="37" viewBox="0 0 74 37" fill="none" xmlns="http://www.w3.org/2000/svg">
<path d="M5.40179 27.6748C5.7118 26.4677 8.10205 23.2318 9.25842 21.7647C10.3431 23.2654 12.5848 26.5485 12.874 27.6748C14.5927 34.3672 3.71543 34.2414 5.40179 27.6748Z" fill="#062E25"/>
<path d="M14.6437 16.5412C12.7776 16.5412 12.2292 18.2824 12.1882 19.1529H13.5388C13.6206 18.8322 13.9316 18.1907 14.521 18.1907C15.1103 18.1907 15.3395 18.8322 15.3804 19.1529H16.9765C16.9765 18.2824 16.5099 16.5412 14.6437 16.5412Z" fill="#062E25"/>
<path d="M9.14118 21.3294V13.0588C9.14118 13.0588 3.82147e-06 15.941 0 16.5676C-3.82146e-06 17.1941 9.14118 21.3294 9.14118 21.3294Z" fill="#062E25"/>
<path d="M19.1858 12.566H9.14118V8.74695H15.2176L11.0013 4.68146L13.6055 1.84795L17.9458 5.79023V0H21.914V5.79023C21.914 5.69168 24.5595 3.12098 25.8823 1.84795L28.7345 4.68146L24.6422 8.74695H30.4706V12.566H24.6422L28.7345 16.8779L26.0063 19.5882L19.1858 12.566Z" fill="#062E25"/>
<path d="M26.9917 22.6223V24.2463H21.9377V26.7103H26.2497L26.1657 28.3203H21.9377V32.2823H19.7117V22.6223H26.9917ZM27.6308 23.1683C27.6308 22.8743 27.7288 22.6363 27.9528 22.4683C28.1628 22.3003 28.4848 22.2163 28.9328 22.2163C29.3668 22.2163 29.6888 22.3143 29.9128 22.4823C30.1368 22.6503 30.2488 22.8883 30.2488 23.1683C30.2488 23.8123 29.8008 24.1343 28.9328 24.1343C28.0648 24.1343 27.6308 23.8123 27.6308 23.1683ZM29.9968 32.2823H27.8688V25.1143H29.9968V32.2823ZM37.3699 25.9263C37.9579 26.5983 38.2519 27.4943 38.2519 28.6143C38.2519 28.7403 38.2379 28.9503 38.2239 29.2443H33.3239C33.3799 29.8043 33.5339 30.2383 33.7999 30.5183C34.0659 30.7983 34.4299 30.9383 34.8779 30.9383C35.2699 30.9383 35.6059 30.8403 35.8579 30.6303C36.1099 30.4343 36.3059 30.1543 36.4319 29.8183L38.1679 30.1683C38.0139 30.8683 37.6499 31.4283 37.0759 31.8483C36.5019 32.2683 35.7319 32.4783 34.7519 32.4783C33.5899 32.4783 32.6939 32.1703 32.0639 31.5403C31.4199 30.9243 31.1119 30.0143 31.1119 28.8243C31.1119 27.6203 31.4339 26.6823 32.0919 25.9823C32.7499 25.2963 33.6599 24.9463 34.8079 24.9183C35.9279 24.9183 36.7819 25.2543 37.3699 25.9263ZM33.8139 26.8783C33.5479 27.1863 33.3799 27.6343 33.3239 28.2223H36.2779C36.2639 27.6763 36.1379 27.2423 35.9139 26.9063C35.6899 26.5843 35.3399 26.4163 34.8779 26.4163C34.4299 26.4163 34.0799 26.5703 33.8139 26.8783ZM43.1042 32.0163C42.9922 32.1283 42.7542 32.2263 42.4182 32.3243C42.0822 32.4363 41.7182 32.4783 41.3262 32.4783C40.6682 32.4783 40.1782 32.3243 39.8702 32.0163C39.5482 31.7083 39.3942 31.2183 39.3942 30.5183V22.4123H41.5222V30.1403C41.5222 30.6163 41.7322 30.8543 42.1522 30.8543C42.2642 30.8543 42.3902 30.8403 42.5162 30.7983C42.6282 30.7563 42.7262 30.7143 42.7962 30.6583L43.1042 32.0163ZM49.2523 22.4123H51.3663V32.2823H49.6303L49.4903 30.5043H49.1823C48.8323 31.8203 47.9783 32.4783 46.6203 32.4783C45.6823 32.4783 44.9263 32.1703 44.3663 31.5263C43.7923 30.8823 43.5123 29.9583 43.5123 28.7403C43.5123 27.9003 43.6523 27.2003 43.9323 26.6263C44.2123 26.0523 44.5763 25.6183 45.0523 25.3383C45.5283 25.0583 46.0463 24.9183 46.6063 24.9183C47.9223 24.9183 48.7763 25.5903 49.1403 26.9343H49.4343C49.4343 26.8503 49.4063 26.5703 49.3783 26.1223C49.2943 25.3243 49.2523 24.6663 49.2523 24.1623V22.4123ZM48.5243 30.3783C48.8043 29.9863 48.9443 29.4263 48.9443 28.6843C48.9303 28.0263 48.7763 27.4943 48.4963 27.0883C48.2163 26.6823 47.8243 26.4723 47.3343 26.4723C46.8303 26.4723 46.4383 26.6683 46.1583 27.0603C45.8643 27.4523 45.7243 28.0263 45.7243 28.7543C45.7243 29.4823 45.8643 30.0423 46.1443 30.4063C46.4243 30.7843 46.8303 30.9663 47.3623 30.9663C47.8523 30.9663 48.2443 30.7703 48.5243 30.3783ZM58.5236 32.2823H56.2976V22.6223H58.5236V32.2823ZM66.8785 32.2263C67.0185 32.3243 67.3125 32.3943 67.7605 32.4503C68.1945 32.5063 68.6425 32.5343 69.0905 32.5343C69.3285 32.5343 69.4965 32.5343 69.6085 32.5203L69.0205 34.5783C68.4465 34.6343 67.9005 34.4523 67.3965 34.0183C66.8785 33.5983 66.4865 33.0523 66.2065 32.3943C65.8705 32.4503 65.5065 32.4783 65.1285 32.4783C63.4625 32.4783 62.1885 32.0583 61.2925 31.2183C60.3965 30.3783 59.9625 29.1323 59.9625 27.4663C59.9625 26.4303 60.1725 25.5203 60.5925 24.7643C61.0125 24.0083 61.6005 23.4343 62.3845 23.0283C63.1685 22.6363 64.0785 22.4263 65.1285 22.4263C66.1645 22.4263 67.0745 22.6363 67.8585 23.0283C68.6285 23.4343 69.2305 24.0083 69.6505 24.7643C70.0705 25.5203 70.2805 26.4303 70.2805 27.4663C70.2805 28.3763 70.1265 29.1603 69.8325 29.8043C69.5245 30.4623 69.1185 30.9663 68.6145 31.3303C68.0965 31.6943 67.5225 31.9183 66.8785 31.9743V32.2263ZM63.0425 29.9163C63.5185 30.4763 64.2185 30.7423 65.1285 30.7423C65.2405 30.7423 65.3945 30.7423 65.5905 30.7143L64.9605 28.9223H66.6685L66.6125 30.3923C67.0325 30.1543 67.3685 29.7903 67.5925 29.3003C67.8165 28.8103 67.9425 28.2083 67.9425 27.4943C67.9425 26.4303 67.6905 25.6043 67.2005 25.0303C66.6965 24.4563 66.0105 24.1623 65.1285 24.1623C64.2325 24.1623 63.5325 24.4563 63.0425 25.0303C62.5525 25.6043 62.3145 26.4303 62.3145 27.4943C62.3145 28.5583 62.5525 29.3563 63.0425 29.9163Z" fill="#062E25"/>
</svg>
